<svg xmlns="http://www.w3.org/2000/svg" viewBox="0 0 128 128" width="128" height="128">
  <!-- Shadow -->
  <ellipse cx="64" cy="120" rx="40" ry="6" fill="#000" opacity="0.3"/>
  <!-- Legs - rounded pillars -->
  <rect x="34" y="96" width="20" height="14" rx="4" fill="#1670CC" opacity="0.9"/>
  <rect x="74" y="96" width="20" height="14" rx="4" fill="#1670CC" opacity="0.9"/>
  <!-- Body - rounded rectangle -->
  <rect x="26" y="42" width="76" height="58" rx="14" fill="#1E90FF"/>
  <!-- Center seam -->
  <line x1="64" y1="44" x2="64" y2="98" stroke="#003366" stroke-width="0.8" opacity="0.3"/>
  <!-- Panel lines -->
  <line x1="32" y1="56" x2="96" y2="56" stroke="#003366" stroke-width="0.8" opacity="0.3"/>
  <line x1="34" y1="70" x2="94" y2="70" stroke="#003366" stroke-width="0.8" opacity="0.3"/>
  <line x1="36" y1="84" x2="92" y2="84" stroke="#003366" stroke-width="0.8" opacity="0.3"/>
  <!-- Rivets -->
  <circle cx="40" cy="58" r="2" fill="#888" opacity="0.8"/>
  <circle cx="88" cy="58" r="2" fill="#888" opacity="0.8"/>
  <circle cx="44" cy="74" r="2" fill="#888" opacity="0.8"/>
  <circle cx="84" cy="74" r="2" fill="#888" opacity="0.8"/>
  <!-- Shoulder pads - ellipses -->
  <ellipse cx="20" cy="52" rx="14" ry="12" fill="#0066CC" opacity="0.9"/>
  <ellipse cx="108" cy="52" rx="14" ry="12" fill="#0066CC" opacity="0.9"/>
  <!-- Shoulder rivets -->
  <circle cx="20" cy="52" r="2" fill="#888" opacity="0.8"/>
  <circle cx="108" cy="52" r="2" fill="#888" opacity="0.8"/>
  <!-- Shoulder highlights -->
  <path d="M12,44 A14,12 0 0,1 28,44" fill="none" stroke="#99D6FF" stroke-width="1.5" opacity="0.6"/>
  <path d="M100,44 A14,12 0 0,1 116,44" fill="none" stroke="#99D6FF" stroke-width="1.5" opacity="0.6"/>
  <!-- Head - circle -->
  <circle cx="64" cy="28" r="22" fill="#4DB8FF"/>
  <!-- Head highlight arc -->
  <path d="M46,18 A22,22 0 0,1 82,18" fill="none" stroke="#99D6FF" stroke-width="1.5" opacity="0.6"/>
  <!-- Visor -->
  <rect x="46" y="18" width="36" height="12" rx="6" fill="#0A1A3A"/>
  <!-- Eyes - cyan circles -->
  <circle cx="54" cy="24" r="5" fill="#00FFFF" opacity="0.25"/>
  <circle cx="74" cy="24" r="5" fill="#00FFFF" opacity="0.25"/>
  <circle cx="54" cy="24" r="4" fill="#00FFFF"/>
  <circle cx="74" cy="24" r="4" fill="#00FFFF"/>
  <circle cx="54" cy="24" r="2" fill="#FFF" opacity="0.8"/>
  <circle cx="74" cy="24" r="2" fill="#FFF" opacity="0.8"/>
  <!-- Hydro jets -->
  <rect x="30" y="88" width="10" height="10" rx="3" fill="#333" opacity="0.9"/>
  <rect x="88" y="88" width="10" height="10" rx="3" fill="#333" opacity="0.9"/>
  <rect x="32" y="90" width="6" height="6" rx="2" fill="#0066CC" opacity="0.7"/>
  <rect x="90" y="90" width="6" height="6" rx="2" fill="#0066CC" opacity="0.7"/>
  <!-- Hydro jet streams -->
  <ellipse cx="35" cy="102" rx="4" ry="2" fill="#66CCFF" opacity="0.4"/>
  <ellipse cx="93" cy="102" rx="4" ry="2" fill="#66CCFF" opacity="0.4"/>
  <!-- Streamlined armor fins -->
  <polygon points="26,60 14,68 26,76" fill="#1670CC" opacity="0.7"/>
  <polygon points="102,60 114,68 102,76" fill="#1670CC" opacity="0.7"/>
  <!-- Body highlight -->
  <line x1="30" y1="43" x2="98" y2="43" stroke="#99D6FF" stroke-width="1.5" opacity="0.6"/>
  <!-- Outline -->
  <circle cx="64" cy="28" r="22" fill="none" stroke="#0066CC" stroke-width="2" opacity="0.7"/>
  <rect x="26" y="42" width="76" height="58" rx="14" fill="none" stroke="#0066CC" stroke-width="2" opacity="0.7"/>
</svg>